#!OML:ASF F:\VICON\USERDATA\INSTALL\rory3\rory3.ASF
:FULLY-SPECIFIED
:DEGREES
1060
root 2.35801 26.9482 -1.18194 -163.354 -20.4954 181.231
lowerback 13.0824 -4.33976 -8.05015
upperback -0.119542 -6.91423 1.85481
thorax -6.26596 -3.12936 7.71707
lowerneck -10.2147 6.12589 -13.9509
upperneck 42.2529 5.30742 3.46729
head 16.3501 -1.43331 4.28651
rclavicle 6.71892e-014 -2.94201e-014
rhumerus -3.01222 28.3262 -70.0435
rradius 104.978
rwrist 46.4382
rhand -26.4752 -3.84387
rfingers 7.12502
rthumb 0.0867931 -33.8236
lclavicle 6.71892e-014 -2.94201e-014
lhumerus -0.909663 -26.1135 86.5929
lradius 53.3558
lwrist -45.8458
lhand -37.5743 34.4061
lfingers 7.12502
lthumb -10.6286 64.1173
rfemur -27.7551 -2.23843 24.8085
rtibia 34.1694
rfoot -1.53651 -10.0382
rtoes 11.2031
lfemur -52.7088 16.4787 -31.097
ltibia 57.1995
lfoot -17.0021 -9.90237
ltoes -5.65192
1061
root 2.36571 26.8872 -1.15691 -163.234 -20.5886 181.062
lowerback 12.7714 -4.31618 -8.21063
upperback 0.0114536 -6.8829 1.80548
thorax -5.94456 -3.13658 7.70347
lowerneck -10.2283 6.03682 -13.7887
upperneck 42.2461 5.18329 3.36484
head 16.3787 -1.46587 4.19908
rclavicle 5.48646e-014 -1.74931e-014
rhumerus -2.14848 27.9338 -69.5281
rradius 105.111
rwrist 46.1247
rhand -25.4666 -4.37183
rfingers 7.12502
rthumb 1.06092 -34.3489
lclavicle 5.48646e-014 -1.74931e-014
lhumerus -0.502859 -26.6197 86.2717
lradius 53.9346
lwrist -45.4306
lhand -37.6597 35.1587
lfingers 7.12502
lthumb -10.711 64.8657
rfemur -27.5524 -2.12639 24.4955
rtibia 32.6536
rfoot -0.262871 -10.0455
rtoes 12.238
lfemur -53.3854 16.3531 -31.2972
ltibia 58.1523
lfoot -17.0778 -10.1495
ltoes -5.06862
1062
root 2.37366 26.8222 -1.12863 -163.135 -20.6811 180.832
lowerback 12.8575 -4.25889 -8.23335
upperback -0.00240962 -6.82733 1.67529
thorax -6.03189 -3.1041 7.57998
lowerneck -10.1482 5.8571 -13.7415
upperneck 42.14 4.89896 3.3993
head 16.3366 -1.5517 4.16571
rclavicle -1.59028e-015 4.45278e-014
rhumerus -1.63445 27.3948 -69.1304
rradius 105.317
rwrist 45.7539
rhand -24.6278 -4.44186
rfingers 7.12502
rthumb 1.87103 -34.4134
lclavicle -1.59028e-015 4.45278e-014
lhumerus -0.286814 -27.0087 86.0187
lradius 54.5121
lwrist -44.9443
lhand -38.1634 34.6461
lfingers 7.12502
lthumb -11.1969 64.3273
rfemur -27.3371 -1.91622 24.0726
rtibia 31.1829
rfoot 0.751428 -10.115
rtoes 7.18167
lfemur -54.0302 16.1666 -31.5546
ltibia 59.0804
lfoot -17.1663 -10.2426
ltoes -4.85902
1063
root 2.38146 26.7553 -1.09744 -163.039 -20.862 180.631
lowerback 12.8635 -4.27444 -8.29568
upperback -0.038127 -6.86192 1.62235
thorax -6.06707 -3.116 7.56581
lowerneck -10.0097 5.91527 -13.8181
upperneck 42.1468 4.90066 3.59031
head 16.2886 -1.5371 4.25997
rclavicle 6.32135e-014 4.29375e-014
rhumerus -1.30711 27.0207 -68.769
rradius 105.588
rwrist 45.4049
rhand -24.0572 -4.40051
rfingers 7.12502
rthumb 2.42209 -34.3665
lclavicle 6.32135e-014 4.29375e-014
lhumerus -0.130333 -27.133 85.8005
lradius 55.1552
lwrist -44.914
lhand -37.755 34.1695
lfingers 7.12502
lthumb -10.803 63.8717
rfemur -27.1288 -1.6798 23.6516
rtibia 29.7471
rfoot 1.49358 -10.4682
rtoes 10.2121
lfemur -54.7211 15.9111 -31.7986
ltibia 59.9947
lfoot -17.2451 -10.2519
ltoes -5.19721
1064
root 2.39167 26.6925 -1.06333 -163.055 -21.1242 180.472
lowerback 13.1077 -4.32732 -8.28176
upperback -0.106995 -6.95751 1.55952
thorax -6.27025 -3.14801 7.53687
lowerneck -10.0422 6.016 -13.8363
upperneck 42.4272 4.91076 3.79396
head 16.4312 -1.55072 4.3609
rclavicle -1.06549e-013 -4.69132e-014
rhumerus -1.04435 26.7038 -68.5764
rradius 105.804
rwrist 45.1947
rhand -23.6427 -4.38558
rfingers 7.12502
rthumb 2.82245 -34.3466
lclavicle -1.06549e-013 -4.69132e-014
lhumerus -0.0427967 -27.3291 85.5787
lradius 55.8255
lwrist -44.8209
lhand -36.9376 34.4532
lfingers 7.12502
lthumb -10.0144 64.1949
rfemur -26.8341 -1.41716 23.2564
rtibia 28.3482
rfoot 2.13515 -10.9049
rtoes 11.4082
lfemur -55.3015 15.6276 -31.9564
ltibia 60.8954
lfoot -17.3513 -10.2303
ltoes -5.33312
1065
root 2.39961 26.6302 -1.03981 -163.011 -21.0937 180.33
lowerback 13.0589 -4.27156 -8.38954
upperback -0.129105 -6.90289 1.4685
thorax -6.27621 -3.11788 7.48766
lowerneck -10.0476 6.01682 -13.8008
upperneck 42.6512 4.75388 4.00815
head 16.5607 -1.61497 4.43447
rclavicle -1.00187e-013 6.20208e-014
rhumerus -0.720385 26.2378 -68.3494
rradius 106.043
rwrist 44.9646
rhand -22.949 -4.24048
rfingers 7.12502
rthumb 3.49232 -34.1916
lclavicle -1.00187e-013 6.20208e-014
lhumerus -0.000204138 -27.5633 85.4046
lradius 56.5442
lwrist -44.5975
lhand -36.442 34.3808
lfingers 7.12502
lthumb -9.53632 64.145
rfemur -26.6093 -1.0622 22.8644
rtibia 26.9782
rfoot 2.95651 -11.0987
rtoes 11.1094
lfemur -55.9067 15.6593 -32.2027
ltibia 61.7962
lfoot -17.5362 -10.2146
ltoes -6.02886
1066
root 2.41288 26.5631 -1.01152 -162.949 -21.3261 180.165
lowerback 13.1502 -4.25585 -8.43738
upperback -0.149421 -6.9032 1.40575
thorax -6.35194 -3.11174 7.45898
lowerneck -10.0873 5.91274 -13.7759
upperneck 42.6719 4.54668 4.17609
head 16.5991 -1.67042 4.48257
rclavicle -3.29983e-014 1.27222e-014
rhumerus -0.321546 25.5779 -68.0178
rradius 106.291
rwrist 44.7806
rhand -22.0439 -4.00487
rfingers 7.12502
rthumb 4.36636 -33.9399
lclavicle -3.29983e-014 1.27222e-014
lhumerus 0.0463171 -27.7662 85.2942
lradius 57.2985
lwrist -44.5776
lhand -35.8657 33.7541
lfingers 7.12502
lthumb -8.98016 63.5429
rfemur -26.3972 -0.844873 22.5217
rtibia 25.673
rfoot 3.70837 -11.7215
rtoes 10.8988
lfemur -56.5396 15.4017 -32.387
ltibia 62.7065
lfoot -17.6208 -10.2332
ltoes -6.18677
1067
root 2.42753 26.4974 -0.982517 -162.813 -21.4828 180.021
lowerback 13.1323 -4.22464 -8.49373
upperback -0.212307 -6.87346 1.35556
thorax -6.41533 -3.08909 7.43481
lowerneck -9.96763 5.80156 -13.6863
upperneck 42.5722 4.34822 4.19643
head 16.5418 -1.71914 4.44445
rclavicle -8.62725e-014 -4.6118e-014
rhumerus 0.0728392 24.9953 -67.7265
rradius 106.485
rwrist 44.4195
rhand -21.8259 -3.83923
rfingers 7.12502
rthumb 4.57688 -33.7698
lclavicle -8.62725e-014 -4.6118e-014
lhumerus 0.237359 -28.0794 85.1106
lradius 57.9497
lwrist -44.2707
lhand -34.9256 33.1035
lfingers 7.12502
lthumb -8.07295 62.9293
rfemur -26.264 -0.456905 22.1428
rtibia 24.4694
rfoot 4.21661 -12.7465
rtoes 12.3928
lfemur -57.3243 15.1965 -32.6066
ltibia 63.6352
lfoot -17.7819 -10.3235
ltoes -5.7414
1068
root 2.4396 26.429 -0.952721 -162.734 -21.6225 179.88
lowerback 13.1252 -4.13903 -8.58215
upperback -0.277442 -6.77927 1.2883
thorax -6.49758 -3.03285 7.40246
lowerneck -9.62917 5.66286 -13.3852
upperneck 42.4485 4.01826 4.12477
head 16.4438 -1.80442 4.30131
rclavicle -2.22639e-014 -5.56597e-015
rhumerus 0.441673 24.4374 -67.4082
rradius 106.685
rwrist 43.6786
rhand -22.0862 -3.83005
rfingers 7.12502
rthumb 4.32551 -33.7659
lclavicle -2.22639e-014 -5.56597e-015
lhumerus 0.509466 -28.6395 84.8592
lradius 58.6007
lwrist -43.5354
lhand -34.0969 32.6665
lfingers 7.12502
lthumb -7.27312 62.5215
rfemur -26.0647 -0.0303929 21.7343
rtibia 23.3657
rfoot 4.54126 -13.7045
rtoes 14.1303
lfemur -58.0364 15.0111 -32.8241
ltibia 64.5669
lfoot -17.942 -10.3993
ltoes -5.10923
